{
 "accessors": [
  {
   "componentType": 5126,
   "type": "VEC3",
   "count": 24,
   "max": [
    4.5,
    3,
    0.05000000074505806
   ],
   "min": [
    -4.5,
    -3,
    -0.05000000074505806
   ],
   "bufferView": 1
  },
  {
   "componentType": 5126,
   "type": "VEC3",
   "count": 24,
   "bufferView": 2
  },
  {
   "componentType": 5126,
   "type": "VEC2",
   "count": 24,
   "bufferView": 3
  },
  {
   "componentType": 5121,
   "type": "SCALAR",
   "count": 36,
   "bufferView": 4
  },
  {
   "componentType": 5126,
   "type": "VEC3",
   "count": 24,
   "max": [
    0.5,
    0.5,
    0.5
   ],
   "min": [
    -0.5,
    -0.5,
    -0.5
   ],
   "bufferView": 5
  },
  {
   "componentType": 5126,
   "type": "VEC3",
   "count": 24,
   "bufferView": 6
  },
  {
   "componentType": 5126,
   "type": "VEC2",
   "count": 24,
   "bufferView": 7
  },
  {
   "componentType": 5121,
   "type": "SCALAR",
   "count": 36,
   "bufferView": 8
  },
  {
   "componentType": 5126,
   "type": "VEC3",
   "count": 24,
   "max": [
    0.5,
    0.5,
    0.5
   ],
   "min": [
    -0.5,
    -0.5,
    -0.5
   ],
   "bufferView": 9
  },
  {
   "componentType": 5126,
   "type": "VEC3",
   "count": 24,
   "bufferView": 10
  },
  {
   "componentType": 5126,
   "type": "VEC2",
   "count": 24,
   "bufferView": 11
  },
  {
   "componentType": 5121,
   "type": "SCALAR",
   "count": 36,
   "bufferView": 12
  },
  {
   "componentType": 5126,
   "type": "VEC3",
   "count": 24,
   "max": [
    0.5,
    0.5,
    0.5
   ],
   "min": [
    -0.5,
    -0.5,
    -0.5
   ],
   "bufferView": 13
  },
  {
   "componentType": 5126,
   "type": "VEC3",
   "count": 24,
   "bufferView": 14
  },
  {
   "componentType": 5126,
   "type": "VEC2",
   "count": 24,
   "bufferView": 15
  },
  {
   "componentType": 5121,
   "type": "SCALAR",
   "count": 36,
   "bufferView": 16
  },
  {
   "componentType": 5126,
   "type": "VEC3",
   "count": 2580,
   "max": [
    3.0411999225616455,
    0.4163999855518341,
    0.10000000149011612
   ],
   "min": [
    0,
    -0.010400000028312206,
    0
   ],
   "bufferView": 17
  },
  {
   "componentType": 5126,
   "type": "VEC3",
   "count": 2580,
   "bufferView": 18
  },
  {
   "componentType": 5126,
   "type": "VEC2",
   "count": 2580,
   "bufferView": 19
  },
  {
   "componentType": 5123,
   "type": "SCALAR",
   "count": 2580,
   "bufferView": 20
  },
  {
   "componentType": 5126,
   "type": "VEC3",
   "count": 3348,
   "max": [
    3.2648000717163086,
    0.4163999855518341,
    0.10000000149011612
   ],
   "min": [
    0,
    -0.010400000028312206,
    0
   ],
   "bufferView": 21
  },
  {
   "componentType": 5126,
   "type": "VEC3",
   "count": 3348,
   "bufferView": 22
  },
  {
   "componentType": 5126,
   "type": "VEC2",
   "count": 3348,
   "bufferView": 23
  },
  {
   "componentType": 5123,
   "type": "SCALAR",
   "count": 3348,
   "bufferView": 24
  },
  {
   "componentType": 5126,
   "type": "VEC3",
   "count": 4980,
   "max": [
    3.9384000301361084,
    0.4163999855518341,
    0.10000000149011612
   ],
   "min": [
    0,
    -0.0812000036239624,
    0
   ],
   "bufferView": 25
  },
  {
   "componentType": 5126,
   "type": "VEC3",
   "count": 4980,
   "bufferView": 26
  },
  {
   "componentType": 5126,
   "type": "VEC2",
   "count": 4980,
   "bufferView": 27
  },
  {
   "componentType": 5123,
   "type": "SCALAR",
   "count": 4980,
   "bufferView": 28
  }
 ],
 "asset": {
  "version": "2.0",
  "generator": "clara.io"
 },
 "bufferViews": [
  {
   "buffer": 0,
   "byteOffset": 0,
   "byteLength": 995398
  },
  {
   "buffer": 0,
   "byteOffset": 995400,
   "byteLength": 288,
   "target": 34962,
   "byteStride": 12
  },
  {
   "buffer": 0,
   "byteOffset": 995688,
   "byteLength": 288,
   "target": 34962,
   "byteStride": 12
  },
  {
   "buffer": 0,
   "byteOffset": 995976,
   "byteLength": 192,
   "target": 34962,
   "byteStride": 8
  },
  {
   "buffer": 0,
   "byteOffset": 996168,
   "byteLength": 36,
   "target": 34963
  },
  {
   "buffer": 0,
   "byteOffset": 996204,
   "byteLength": 288,
   "target": 34962,
   "byteStride": 12
  },
  {
   "buffer": 0,
   "byteOffset": 996492,
   "byteLength": 288,
   "target": 34962,
   "byteStride": 12
  },
  {
   "buffer": 0,
   "byteOffset": 996780,
   "byteLength": 192,
   "target": 34962,
   "byteStride": 8
  },
  {
   "buffer": 0,
   "byteOffset": 996972,
   "byteLength": 36,
   "target": 34963
  },
  {
   "buffer": 0,
   "byteOffset": 997008,
   "byteLength": 288,
   "target": 34962,
   "byteStride": 12
  },
  {
   "buffer": 0,
   "byteOffset": 997296,
   "byteLength": 288,
   "target": 34962,
   "byteStride": 12
  },
  {
   "buffer": 0,
   "byteOffset": 997584,
   "byteLength": 192,
   "target": 34962,
   "byteStride": 8
  },
  {
   "buffer": 0,
   "byteOffset": 997776,
   "byteLength": 36,
   "target": 34963
  },
  {
   "buffer": 0,
   "byteOffset": 997812,
   "byteLength": 288,
   "target": 34962,
   "byteStride": 12
  },
  {
   "buffer": 0,
   "byteOffset": 998100,
   "byteLength": 288,
   "target": 34962,
   "byteStride": 12
  },
  {
   "buffer": 0,
   "byteOffset": 998388,
   "byteLength": 192,
   "target": 34962,
   "byteStride": 8
  },
  {
   "buffer": 0,
   "byteOffset": 998580,
   "byteLength": 36,
   "target": 34963
  },
  {
   "buffer": 0,
   "byteOffset": 998616,
   "byteLength": 30960,
   "target": 34962,
   "byteStride": 12
  },
  {
   "buffer": 0,
   "byteOffset": 1029576,
   "byteLength": 30960,
   "target": 34962,
   "byteStride": 12
  },
  {
   "buffer": 0,
   "byteOffset": 1060536,
   "byteLength": 20640,
   "target": 34962,
   "byteStride": 8
  },
  {
   "buffer": 0,
   "byteOffset": 1081176,
   "byteLength": 5160,
   "target": 34963
  },
  {
   "buffer": 0,
   "byteOffset": 1086336,
   "byteLength": 40176,
   "target": 34962,
   "byteStride": 12
  },
  {
   "buffer": 0,
   "byteOffset": 1126512,
   "byteLength": 40176,
   "target": 34962,
   "byteStride": 12
  },
  {
   "buffer": 0,
   "byteOffset": 1166688,
   "byteLength": 26784,
   "target": 34962,
   "byteStride": 8
  },
  {
   "buffer": 0,
   "byteOffset": 1193472,
   "byteLength": 6696,
   "target": 34963
  },
  {
   "buffer": 0,
   "byteOffset": 1200168,
   "byteLength": 59760,
   "target": 34962,
   "byteStride": 12
  },
  {
   "buffer": 0,
   "byteOffset": 1259928,
   "byteLength": 59760,
   "target": 34962,
   "byteStride": 12
  },
  {
   "buffer": 0,
   "byteOffset": 1319688,
   "byteLength": 39840,
   "target": 34962,
   "byteStride": 8
  },
  {
   "buffer": 0,
   "byteOffset": 1359528,
   "byteLength": 9960,
   "target": 34963
  }
 ],
 "buffers": [
  {
   "byteLength": 1369488,
   "uri": "data:application/octet-stream;base64,"
  }
 ],
 "images": [
  {
   "name": "headshot2.jpg",
   "bufferView": 0,
   "mimeType": "image/jpeg"
  }
 ],
 "materials": [
  {
   "name": "Standard",
   "pbrMetallicRoughness": {
    "metallicFactor": 0
   },
   "emissiveFactor": [
    1,
    1,
    1
   ]
  },
  {
   "name": "headshot2Material",
   "pbrMetallicRoughness": {
    "baseColorFactor": [
     0.6901960784313725,
     0.6901960784313725,
     0.6901960784313725,
     1
    ],
    "baseColorTexture": {
     "index": 0,
     "texCoord": 0
    },
    "roughnessFactor": 0.25,
    "metallicFactor": 0
   }
  },
  {
   "name": "Default-Post1",
   "pbrMetallicRoughness": {
    "baseColorFactor": [
     0.7490196078431373,
     0.7490196078431373,
     0.7490196078431373,
     1
    ]
   }
  },
  {
   "name": "Default-Post2",
   "pbrMetallicRoughness": {
    "baseColorFactor": [
     0.7490196078431373,
     0.7490196078431373,
     0.7490196078431373,
     1
    ]
   }
  },
  {
   "name": "TextMaterial",
   "pbrMetallicRoughness": {
    "baseColorFactor": [
     0,
     0,
     0,
     1
    ],
    "roughnessFactor": 0.1961,
    "metallicFactor": 0
   }
  }
 ],
 "meshes": [
  {
   "primitives": [
    {
     "indices": 3,
     "material": 0,
     "mode": 4,
     "attributes": {
      "POSITION": 0,
      "NORMAL": 1,
      "TEXCOORD_0": 2
     }
    }
   ]
  },
  {
   "primitives": [
    {
     "indices": 7,
     "material": 1,
     "mode": 4,
     "attributes": {
      "POSITION": 4,
      "NORMAL": 5,
      "TEXCOORD_0": 6
     }
    }
   ]
  },
  {
   "primitives": [
    {
     "indices": 11,
     "material": 2,
     "mode": 4,
     "attributes": {
      "POSITION": 8,
      "NORMAL": 9,
      "TEXCOORD_0": 10
     }
    }
   ]
  },
  {
   "primitives": [
    {
     "indices": 15,
     "material": 3,
     "mode": 4,
     "attributes": {
      "POSITION": 12,
      "NORMAL": 13,
      "TEXCOORD_0": 14
     }
    }
   ]
  },
  {
   "primitives": [
    {
     "indices": 19,
     "material": 4,
     "mode": 4,
     "attributes": {
      "POSITION": 16,
      "NORMAL": 17,
      "TEXCOORD_0": 18
     }
    }
   ]
  },
  {
   "primitives": [
    {
     "indices": 23,
     "material": 4,
     "mode": 4,
     "attributes": {
      "POSITION": 20,
      "NORMAL": 21,
      "TEXCOORD_0": 22
     }
    }
   ]
  },
  {
   "primitives": [
    {
     "indices": 27,
     "material": 4,
     "mode": 4,
     "attributes": {
      "POSITION": 24,
      "NORMAL": 25,
      "TEXCOORD_0": 26
     }
    }
   ]
  }
 ],
 "nodes": [
  {
   "name": "Wall",
   "translation": [
    0.019099999219179153,
    3.032599925994873,
    0
   ],
   "mesh": 0
  },
  {
   "name": "Picture",
   "translation": [
    0,
    3.4546000957489014,
    0.06199999898672104
   ],
   "scale": [
    2.1389000415802,
    1.5901999473571777,
    0.1599999964237213
   ],
   "mesh": 1
  },
  {
   "name": "Post1",
   "translation": [
    -4.9664998054504395,
    3.513400077819824,
    0
   ],
   "scale": [
    1,
    7.035999774932861,
    0.46309998631477356
   ],
   "mesh": 2
  },
  {
   "name": "Post2",
   "translation": [
    5.049799919128418,
    3.513400077819824,
    0
   ],
   "scale": [
    1,
    7.035999774932861,
    0.46309998631477356
   ],
   "mesh": 3
  },
  {
   "name": "Text1",
   "translation": [
    -0.8320000171661377,
    5.11929988861084,
    0.05339999869465828
   ],
   "scale": [
    0.5486999750137329,
    0.7038999795913696,
    0.13490000367164612
   ],
   "mesh": 4
  },
  {
   "name": "Text",
   "translation": [
    -0.871999979019165,
    1.7347999811172485,
    0.05339999869465828
   ],
   "scale": [
    0.5486999750137329,
    0.7038999795913696,
    0.13490000367164612
   ],
   "mesh": 5
  },
  {
   "name": "Text2",
   "translation": [
    -1.0467000007629395,
    4.659999847412109,
    0.05339999869465828
   ],
   "scale": [
    0.5486999750137329,
    0.7038999795913696,
    0.13490000367164612
   ],
   "mesh": 6
  }
 ],
 "samplers": [
  {
   "magFilter": 9729,
   "minFilter": 9729,
   "wrapS": 10497,
   "wrapT": 10497
  }
 ],
 "scene": 0,
 "scenes": [
  {
   "nodes": [
    0,
    1,
    2,
    3,
    4,
    5,
    6
   ]
  }
 ],
 "textures": [
  {
   "sampler": 0,
   "source": 0
  }
 ]
}